<?xml version="1.0" encoding="UTF-8" standalone="no"?>
<!-- Created with Inkscape (http://www.inkscape.org/) -->

<svg
   width="285.75mm"
   height="46.037498mm"
   viewBox="0 0 285.75001 46.037499"
   version="1.1"
   id="svg1"
   xml:space="preserve"
   inkscape:version="1.4 (86a8ad7, 2024-10-11)"
   sodipodi:docname="avaliartitle.svg"
   xmlns:inkscape="http://www.inkscape.org/namespaces/inkscape"
   xmlns:sodipodi="http://sodipodi.sourceforge.net/DTD/sodipodi-0.dtd"
   xmlns="http://www.w3.org/2000/svg"
   xmlns:svg="http://www.w3.org/2000/svg"><sodipodi:namedview
     id="namedview1"
     pagecolor="#ffffff"
     bordercolor="#000000"
     borderopacity="0.25"
     inkscape:showpageshadow="2"
     inkscape:pageopacity="0.0"
     inkscape:pagecheckerboard="0"
     inkscape:deskcolor="#d1d1d1"
     inkscape:document-units="mm"
     inkscape:zoom="0.48693448"
     inkscape:cx="370.68642"
     inkscape:cy="-3.0804966"
     inkscape:window-width="1920"
     inkscape:window-height="991"
     inkscape:window-x="-9"
     inkscape:window-y="-9"
     inkscape:window-maximized="1"
     inkscape:current-layer="layer1" /><defs
     id="defs1" /><g
     inkscape:label="Camada 1"
     inkscape:groupmode="layer"
     id="layer1"
     transform="translate(16.244486,-202.63411)"><g
       id="g3"><path
         style="fill:#19265d;fill-opacity:1;stroke:none;stroke-width:0.5366"
         d="m 2.0533263,202.63413 v 45.99998 H 43.368131 v -24.84566 l -2.469892,2.69753 c 0,0 -0.0857,3.12067 -0.0857,4.40122 v 9.93827 l -0.04285,5.31058 c 0,0 -5.968841,-0.0575 -8.901608,-0.0575 H 4.7508557 V 205.33164 H 40.812572 v 8.80246 l 2.547208,-2.69753 0.0083,-8.80246 H 2.0533263"
         id="path1"
         sodipodi:nodetypes="cccccscccccccccc" /><path
         d="m 9.549302,212.00405 v 1.70369 h 26.265431 l -0.01841,-1.61803 -26.2470636,-0.0858 m 0,4.68519 v 1.7037 H 35.814691 v -1.7037 H 9.549302 m 0,4.68519 v 1.7037 h 17.604933 v -1.7037 z"
         style="fill:#049bdb;fill-opacity:1;stroke:none;stroke-width:0.5366"
         id="path1-7" /><path
         d="m 52.899238,203.28591 -19.048683,21.01233 -5.800502,6.38889 -3.261926,3.83333 -9.512334,-9.17933 -3.211977,3.78427 c 4.16039,4.24536 8.37932,8.43278 12.582337,12.6358 h 0.141974 L 38.583831,226.42787 56.306643,206.6933 v -0.14197 l -3.407405,-3.26542"
         style="fill:#62b44b;fill-opacity:1;stroke:none;stroke-width:0.5366"
         id="path1-4" /></g><text
       xml:space="preserve"
       style="font-size:59.2865px;line-height:0.9;font-family:Caladea;-inkscape-font-specification:Caladea;text-align:start;letter-spacing:-1.95937px;writing-mode:lr-tb;direction:ltr;text-anchor:start;opacity:1;fill:#504416;fill-opacity:1;stroke-width:2.33411;stroke-linecap:square;stroke-miterlimit:21;paint-order:stroke fill markers"
       x="78.404396"
       y="239.98306"
       id="text3"
       transform="scale(0.96661008,1.0345433)"><tspan
         sodipodi:role="line"
         id="tspan3"
         style="font-style:normal;font-variant:normal;font-weight:800;font-stretch:normal;line-height:0.9;font-family:Rubik;-inkscape-font-specification:'Rubik Ultra-Bold';letter-spacing:-1.95937px;fill:#000000;fill-opacity:1;stroke-width:2.33411"
         x="78.404396"
         y="239.98306">Avaliar</tspan></text></g></svg>
